<?xml version="1.0" encoding="UTF-8" standalone="no"?>
<!DOCTYPE svg PUBLIC "-//W3C//DTD SVG 1.1//EN" "http://www.w3.org/Graphics/SVG/1.1/DTD/svg11.dtd">
<svg width="100%" height="100%" viewBox="0 0 561 733" version="1.1" xmlns="http://www.w3.org/2000/svg" xmlns:xlink="http://www.w3.org/1999/xlink" xml:space="preserve" xmlns:serif="http://www.serif.com/" style="fill-rule:evenodd;clip-rule:evenodd;stroke-linejoin:round;stroke-miterlimit:1.41421;">
    <g transform="matrix(4.16667,0,0,4.16667,89.4625,688.092)">
        <g id="Calque-1" serif:id="Calque 1">
            <path d="M0,-154.535C0,-160.538 -4.257,-164.405 -10.479,-164.405L-15.291,-164.405L-15.339,-164.405L-21.471,-164.405L-21.471,-131.147L-15.291,-131.147L-15.291,-159.713L-13.083,-159.713C-9.816,-159.713 -6.24,-158.425 -6.316,-154.085C-6.376,-150.694 -8.9,-148.139 -13.083,-148.139L-15.271,-148.139L-15.271,-143.498L-15.256,-143.342C-15.256,-143.342 -10.977,-143.225 -8.388,-143.766C-4.556,-144.568 0,-148.116 0,-154.535M41.546,-121.2L-5.403,-121.2L18.525,-76L41.546,-121.2ZM21.388,-145.001L13.367,-145.001L17.378,-157.008L21.388,-145.001ZM26.034,-131.098L32.569,-131.098L20.608,-164.357L19.831,-164.357L14.92,-164.357L14.286,-164.357L2.327,-131.098L8.723,-131.098L11.836,-140.417L22.918,-140.417L26.034,-131.098ZM56.236,-155.084C56.236,-152.6 55.129,-149.914 49.587,-149.914L46.924,-149.914L46.924,-159.665L49.974,-159.665C53.942,-159.665 56.236,-157.574 56.236,-155.084M66.596,-131.098L57.192,-146.415C60.271,-148.116 62.74,-151.366 62.74,-155.411C62.74,-161.048 58.367,-164.357 52.99,-164.357L46.924,-164.357L46.767,-164.357L40.744,-164.357L40.744,-131.098L46.924,-131.098L46.924,-145.115L51.106,-145.115L59.503,-131.098L66.596,-131.098ZM94.385,-98.139C94.385,-102.951 94.306,-113.965 94.328,-121.2L64.001,-121.2C64.018,-114.371 64.242,-101.551 64.242,-98.02C64.242,-85.8 71.438,-81.25 79.092,-81.25C86.934,-81.25 94.385,-85.922 94.385,-98.139M74.509,-131.098L80.828,-131.098L80.828,-164.356L74.509,-164.356L74.509,-131.098ZM98.542,-156.692C98.542,-158.59 100.574,-159.813 103.715,-159.813C105.78,-159.813 108.409,-158.8 110.114,-157.349L110.415,-157.09L110.415,-163.458L110.324,-163.509C110.211,-163.577 107.511,-165.142 103.334,-165.142C101.419,-165.142 98.647,-164.895 96.314,-163.728C93.369,-162.248 91.873,-159.713 91.873,-156.191C91.873,-153.921 92.676,-151.952 94.325,-150.167C95.742,-148.634 97.535,-147.53 98.844,-146.725C99.316,-146.434 99.812,-146.15 100.286,-145.874C103.072,-144.261 105.704,-142.739 105.704,-139.583C105.704,-137.464 103.59,-135.868 100.79,-135.868L100.645,-135.865L100.375,-135.865C97.311,-135.865 94.229,-137.108 91.457,-139.464L91.156,-139.72L91.107,-133.233L91.19,-133.179C91.228,-133.153 94.997,-130.726 100.349,-130.726C103.45,-130.726 106.338,-131.665 108.478,-133.367C110.797,-135.213 112.023,-137.757 112.023,-140.724C112.023,-144.637 110.236,-147.265 105.857,-149.795L105.465,-150.022C101.598,-152.253 98.542,-154.014 98.542,-156.692M104.686,-41.826C108.449,-39.982 111.138,-38.119 113.011,-36.179L113.011,-57.355C111.38,-58.283 108.022,-59.85 103.96,-59.85C99.12,-59.85 94.545,-57.52 94.545,-52.004C94.545,-46.319 100.522,-43.869 104.686,-41.826M54.464,3.237L54.452,3.237L31.252,3.237L25.701,3.237L25.704,0.964L25.704,-41.937C25.704,-44.905 24.318,-46.481 24.318,-46.481L52.651,-46.481L52.651,-42.401L52.64,-42.401L52.64,-42.33L32.515,-42.33L32.515,-25.645L48.884,-25.645L48.884,-21.494L32.572,-21.494L32.572,-0.914L54.452,-0.914L54.452,-0.59L54.464,-0.59L54.464,3.237ZM46.252,-56.399L39.811,-49.958L35.446,-49.958L40.496,-56.399L46.252,-56.399ZM18.915,-16.483C18.152,-10.338 12.292,-3.876 1.664,-3.876C-5.614,-3.876 -9.805,-6.562 -11.06,-7.39L-11.06,-13.368C-8.328,-11.197 -4.456,-8.351 1.949,-8.351C7.315,-8.351 11.46,-11.581 11.898,-16.495C12.553,-23.799 5.665,-26.16 -0.714,-29.512C-6.826,-32.727 -9.6,-36.75 -9.6,-41.937C-9.6,-51.056 -2.105,-56.01 6.009,-56.01C12.049,-56.01 16.471,-53.739 16.471,-53.739L16.471,-48.425C16.471,-48.425 12.115,-51.586 6.353,-51.586C1.514,-51.586 -3.062,-49.255 -3.062,-43.738C-3.062,-38.054 2.914,-35.6 7.076,-33.56C17.563,-28.419 19.746,-23.144 18.915,-16.483M113.011,10.607L113.011,-17.473C110.122,-14.381 105.524,-12.141 99.271,-12.141C92.163,-12.141 88.007,-14.702 86.649,-15.59L86.649,-13.601L86.635,-13.601L63.432,-13.601L57.887,-13.601L57.89,-15.875L57.89,-58.772C57.89,-61.743 56.501,-63.319 56.501,-63.319L84.837,-63.319L84.837,-59.236L84.822,-59.236L84.822,-59.168L64.704,-59.168L64.704,-42.483L81.066,-42.483L81.066,-38.335L64.755,-38.335L64.755,-17.753L86.547,-17.753L86.547,-21.634C89.278,-19.463 93.15,-16.617 99.555,-16.617C104.921,-16.617 109.066,-19.849 109.505,-24.761C110.159,-32.064 103.271,-34.426 96.895,-37.78C90.783,-40.995 88.007,-45.015 88.007,-50.203C88.007,-59.324 95.501,-64.275 103.615,-64.275C107.895,-64.275 111.349,-63.139 113.011,-62.477L113.011,-121.2L98.989,-121.2C98.961,-115.168 99.021,-102.826 98.887,-98.705C98.778,-95.334 100.021,-76.694 77.786,-76.694C55.468,-76.694 57.628,-97.053 57.525,-101.821C57.485,-103.622 57.417,-115.504 57.386,-121.2L43.717,-121.2L50.941,-63.27L43.839,-63.27L38.968,-104.735L17.45,-64.104L17.077,-64.104L-4.51,-104.803L-9.034,-63.27L-14.317,-63.27L-7.674,-121.2L-21.471,-121.2L-21.471,10.607L113.011,10.607Z" style="fill:rgb(29,29,27);fill-rule:nonzero;"/>
        </g>
    </g>
</svg>
