<?xml version="1.0" encoding="UTF-8"?><svg id="uuid-8ed72223-acab-4fc4-8492-2920ea7e6a38" xmlns="http://www.w3.org/2000/svg" viewBox="0 0 475.58 339.39"><defs><style>.uuid-f88c7121-4558-44a8-9fe8-4e461cdb8b95{fill:#000;stroke-width:0px;}</style></defs><path class="uuid-f88c7121-4558-44a8-9fe8-4e461cdb8b95" d="M56.04,96.16h6.08v-13.31h8.14c8.63,0,14.1-6.63,14.1-13.31s-5.11-13.5-13.86-13.5h-14.47v40.12ZM62.12,76.89v-14.89h8.02c5.23,0,7.96,3.77,7.96,7.54s-2.8,7.35-7.96,7.35h-8.02ZM94.46,96.76l3.83-9.42h17.45l3.89,9.42,5.47-2.31-15.99-38.42h-4.38l-15.99,38.42,5.71,2.31ZM100.6,81.51l6.32-15.56,6.44,15.56h-12.77ZM161.45,96.76l4.92-3.65-9.54-13.13c4.62-2.13,7.23-6.5,7.23-11.24,0-6.75-4.44-12.71-13.8-12.71h-13.43v40.12h5.96v-14.77h7.48l11.18,15.38ZM142.79,75.55v-13.68h7.11c5.29,0,8.02,3.22,8.02,6.99s-2.61,6.69-8.02,6.69h-7.11ZM180.05,96.16h6.14v-40.12h-6.14v40.12ZM214.39,96.76c6.26,0,12.64-3.95,12.64-11.61,0-5.96-4.01-9.06-11.92-12.04-4.5-1.7-7.6-3.34-7.6-6.57s2.98-5.29,6.38-5.29c3.16,0,6.26,1.52,8.63,4.07l3.89-4.13c-3.46-3.83-8.21-5.78-12.58-5.78-6.56,0-12.46,4.38-12.46,11.55,0,4.98,3.22,8.33,9.24,10.64,6.99,2.73,10.27,4.07,10.27,7.78s-3.04,5.53-6.38,5.53c-3.77,0-7.9-2.07-10.82-6.32l-4.2,3.71c3.59,5.59,9.36,8.45,14.89,8.45"/><path class="uuid-f88c7121-4558-44a8-9fe8-4e461cdb8b95" d="M410.54,283.16c4.4,0,9-2.15,9-6.9,0-3.4-2.25-5.65-7.4-6.85-4.8-1.2-5.45-2.15-5.45-3.25,0-1.55,1.65-2.3,3.5-2.3,2.3,0,4.7,1.1,6.3,3l2.95-3.3c-2.25-2.5-5.25-3.9-9.15-3.9-4.6,0-8.5,2.8-8.5,6.8,0,3.75,2.85,5.6,7.25,6.8,4.25,1.15,5.55,1.55,5.55,3,0,1.75-1.85,2.5-3.7,2.5-2.8,0-5.05-1.5-7-3.85l-3.35,3.05c2.45,3.55,6.1,5.2,10,5.2M388.99,255.81h7.55v-7.55h-7.55v7.55ZM390.24,282.71h5.05v-22.6h-5.05v22.6ZM372.79,282.66h5.05v-15.4l8.3-3.4-1.7-4.2-6.6,2.7v-2.2h-5.05v22.5ZM346.14,271.41c0-3.8,3.15-7.1,7-7.1s7,2.9,7,7.1-3.2,7.1-7,7.1-7-3.25-7-7.1M353.14,283.16c2.2,0,4.25-.6,6.05-1.65v1.15h5.05v-7c.5-1.3.8-2.75.8-4.25s-.3-2.9-.8-4.25v-7h-5.05v1.15c-1.8-1.05-3.85-1.65-6.05-1.65-6.55,0-11.9,5.25-11.9,11.75s5.35,11.75,11.9,11.75M320.09,266.66v-12.1h7.1c4.3,0,6.55,3.05,6.55,6.15s-2.15,5.95-6.55,5.95h-7.1ZM315.09,282.66h5v-11.1h7.4c7.75,0,11.4-5.45,11.4-10.95s-3.65-10.95-11.4-10.95h-12.4v33ZM281.81,271.81v-.15c0-4.85,3.55-7.5,7.1-7.5,2,0,3.85.75,5.25,2.55l-12.35,5.1ZM288.86,283.16c4.35,0,9.1-2,11.45-6.35l-3.55-2.65c-1.9,3.1-5,4.5-7.9,4.5-2.1,0-4.3-.9-5.7-2.7l16.75-6.9c-1.05-6.5-5.95-9.4-10.9-9.4-7.5,0-12,5.8-12,11.75s4.1,11.75,11.85,11.75M252.26,271.41c0-3.95,3.1-7.25,7.05-7.25s7.05,3.3,7.05,7.25-3.15,7.25-7.05,7.25-7.05-3.35-7.05-7.25M259.31,283.21c2.15,0,4.15-.55,5.9-1.55v1.15h5.05v-6.8c.6-1.4.95-2.95.95-4.6s-.35-3.2-.95-4.6v-17.8h-5.05v12.15c-1.75-1-3.75-1.55-5.9-1.55-6.55,0-11.9,5.25-11.9,11.8s5.35,11.8,11.9,11.8"/><path class="uuid-f88c7121-4558-44a8-9fe8-4e461cdb8b95" d="M325.01,223.81v-.15c0-4.85,3.55-7.5,7.1-7.5,2,0,3.85.75,5.25,2.55l-12.35,5.1ZM332.06,235.16c4.35,0,9.1-2,11.45-6.35l-3.55-2.65c-1.9,3.1-5,4.5-7.9,4.5-2.1,0-4.3-.9-5.7-2.7l16.75-6.9c-1.05-6.5-5.95-9.4-10.9-9.4-7.5,0-12,5.8-12,11.75s4.1,11.75,11.85,11.75M308.11,234.81h5.05v-33.8h-5.05v33.8ZM294.06,234.81h5.05v-33.8h-5.05v33.8ZM278.76,207.81h7.55v-7.55h-7.55v7.55ZM280.01,234.71h5.05v-22.6h-5.05v22.6ZM258.36,234.66h3.7l12.7-31.6-4.75-1.9-9.8,25.05-9.8-25.05-4.75,1.9,12.7,31.6Z"/><path class="uuid-f88c7121-4558-44a8-9fe8-4e461cdb8b95" d="M399.06,179.41c0-3.8,3.15-7.1,7-7.1s7,2.9,7,7.1-3.2,7.1-7,7.1-7-3.25-7-7.1M406.06,191.16c2.2,0,4.25-.6,6.05-1.65v1.15h5.05v-7c.5-1.3.8-2.75.8-4.25s-.3-2.9-.8-4.25v-7h-5.05v1.15c-1.8-1.05-3.85-1.65-6.05-1.65-6.55,0-11.9,5.25-11.9,11.75s5.35,11.75,11.9,11.75M383.11,190.81h5.05v-33.8h-5.05v33.8ZM343.48,179.81v-.15c0-4.85,3.55-7.5,7.1-7.5,2,0,3.85.75,5.25,2.55l-12.35,5.1ZM350.53,191.16c4.35,0,9.1-2,11.45-6.35l-3.55-2.65c-1.9,3.1-5,4.5-7.9,4.5-2.1,0-4.3-.9-5.7-2.7l16.75-6.9c-1.05-6.5-5.95-9.4-10.9-9.4-7.5,0-12,5.8-12,11.75s4.1,11.75,11.85,11.75M313.68,179.41c0-3.95,3.1-7.25,7.05-7.25s7.05,3.3,7.05,7.25-3.15,7.25-7.05,7.25-7.05-3.35-7.05-7.25M320.73,191.21c2.15,0,4.15-.55,5.9-1.55v1.15h5.05v-6.8c.6-1.4.95-2.95.95-4.6s-.35-3.2-.95-4.6v-17.8h-5.05v12.15c-1.75-1-3.75-1.55-5.9-1.55-6.55,0-11.9,5.25-11.9,11.8s5.35,11.8,11.9,11.8"/><path class="uuid-f88c7121-4558-44a8-9fe8-4e461cdb8b95" d="M409.66,145.16c4.4,0,9-2.15,9-6.9,0-3.4-2.25-5.65-7.4-6.85-4.8-1.2-5.45-2.15-5.45-3.25,0-1.55,1.65-2.3,3.5-2.3,2.3,0,4.7,1.1,6.3,3l2.95-3.3c-2.25-2.5-5.25-3.9-9.15-3.9-4.6,0-8.5,2.8-8.5,6.8,0,3.75,2.85,5.6,7.25,6.8,4.25,1.15,5.55,1.55,5.55,3,0,1.75-1.85,2.5-3.7,2.5-2.8,0-5.05-1.5-7-3.85l-3.35,3.05c2.45,3.55,6.1,5.2,10,5.2M376.36,133.81v-.15c0-4.85,3.55-7.5,7.1-7.5,2,0,3.85.75,5.25,2.55l-12.35,5.1ZM383.41,145.16c4.35,0,9.1-2,11.45-6.35l-3.55-2.65c-1.9,3.1-5,4.5-7.9,4.5-2.1,0-4.3-.9-5.7-2.7l16.75-6.9c-1.05-6.5-5.95-9.4-10.9-9.4-7.5,0-12,5.8-12,11.75s4.1,11.75,11.85,11.75M347.96,133.81v-.15c0-4.85,3.55-7.5,7.1-7.5,2,0,3.85.75,5.25,2.55l-12.35,5.1ZM347.36,116.06l1.7,4.1,12.35-5.1-1.7-4.1-12.35,5.1ZM355.01,145.16c4.35,0,9.1-2,11.45-6.35l-3.55-2.65c-1.9,3.1-5,4.5-7.9,4.5-2.1,0-4.3-.9-5.7-2.7l16.75-6.9c-1.05-6.5-5.95-9.4-10.9-9.4-7.5,0-12,5.8-12,11.75s4.1,11.75,11.85,11.75M328.86,145.16c4.4,0,9-2.15,9-6.9,0-3.4-2.25-5.65-7.4-6.85-4.8-1.2-5.45-2.15-5.45-3.25,0-1.55,1.65-2.3,3.5-2.3,2.3,0,4.7,1.1,6.3,3l2.95-3.3c-2.25-2.5-5.25-3.9-9.15-3.9-4.6,0-8.5,2.8-8.5,6.8,0,3.75,2.85,5.6,7.25,6.8,4.25,1.15,5.55,1.55,5.55,3,0,1.75-1.85,2.5-3.7,2.5-2.8,0-5.05-1.5-7-3.85l-3.35,3.05c2.45,3.55,6.1,5.2,10,5.2M290.96,122.16v11.25c0,7.95,5.45,11.75,10.85,11.75s10.8-3.8,10.8-11.75v-11.25h-5.05v11.55c0,4.5-2.7,6.45-5.55,6.45-3,0-6-2.15-6-6.45v-11.55h-5.05ZM278.55,111.56l-12.61,19.99-12.61-19.99h-4.01s0,33.1,0,33.1h5.15v-22.8l9.95,15.85h3.05l9.95-15.9v22.85h5.15v-33.1h-4.01Z"/><polygon class="uuid-f88c7121-4558-44a8-9fe8-4e461cdb8b95" points="135.88 112.07 77.89 112.07 106.84 154.43 135.88 112.07"/><path class="uuid-f88c7121-4558-44a8-9fe8-4e461cdb8b95" d="M216.95,246.66c-8.32,0-17.01-4.25-22.36-12.66l6.1-5.36c4.43,6.38,10.72,9.52,16.45,9.52,5.17,0,9.89-3.14,9.89-8.59,0-5.73-5.08-8.04-15.71-12.2-9.15-3.51-13.95-9.61-13.95-16.17,0-10.81,8.87-17.38,18.76-17.38,3.72,0,7.61.92,11.23,2.76v-74.51h-17.86v30.42c0,17.47-11.65,26.71-25.69,26.71s-25.51-9.33-25.51-26.71v-30.42h-14.33v72.73h-9.92v-53.27l-24.13,35.07h-6.14l-24.13-35.27v53.47h-9.92v-72.73h-13.69v170.88h171.31v-38.91c-3.12,1.74-6.77,2.62-10.4,2.62ZM83.9,256.35c-8.32,0-17.01-4.25-22.36-12.66l6.1-5.36c4.43,6.38,10.72,9.52,16.45,9.52,5.17,0,9.89-3.14,9.89-8.59,0-5.73-5.08-8.04-15.71-12.2-9.15-3.51-13.96-9.61-13.96-16.17,0-10.81,8.87-17.38,18.76-17.38,6.56,0,13.68,2.86,18.85,8.59l-5.64,6.01c-3.6-3.79-8.32-6.1-13.12-6.1-5.27,0-9.89,2.96-9.89,8.13s4.8,7.86,11.65,10.44c12.01,4.53,18.02,9.33,18.02,18.3,0,11.55-9.61,17.47-19.04,17.47ZM137.47,191l2.96,7.02-22.27,9.24-2.96-7.02,22.27-9.24ZM146.12,271.65h-36.14v-60.9l35.21-.09v8.13h-26.62v17.84l24.77-.09v8.13h-24.77v18.95l27.54-.09v8.13ZM192.08,245.77h-36.14v-60.9l35.21-.09v8.13h-26.62v17.84l24.77-.09v8.13h-24.77v18.95l27.54-.09v8.13Z"/><path class="uuid-f88c7121-4558-44a8-9fe8-4e461cdb8b95" d="M206.32,200.46c0,4.99,4.81,7.85,11.65,10.44,3.7,1.39,6.82,2.82,9.38,4.38v-18.67c-3.27-2.68-7.17-4.28-11.14-4.28-5.27,0-9.89,2.96-9.89,8.13Z"/><path class="uuid-f88c7121-4558-44a8-9fe8-4e461cdb8b95" d="M183.79,161.07c10.26,0,17.1-7.12,17.1-19.13v-29.87h-34.01v29.87c0,12.01,6.75,19.13,16.91,19.13Z"/></svg>